<svg height="512" viewBox="0 0 60 60" width="512" xmlns="http://www.w3.org/2000/svg"><g id="Page-1" fill="none" fill-rule="evenodd"><g id="041---Campfire-Song" fill="rgb(0,0,0)" fill-rule="nonzero"><path id="Shape" d="m56 50h-6.227c2.5594984-1.5844961 4.1485807-4.3517625 4.227-7.361 0-7.647-5.375-13.374-8.58-16.108-.5925251-.5024839-1.403782-.6605429-2.1416077-.4172544-.7378256.2432886-1.2959576.8528861-1.4733923 1.6092544-.588 2.559-2.462 4.127-4.446 5.786-2.512 2.1-5.359 4.481-5.359 9.13.0784193 3.0092375 1.6675016 5.7765039 4.227 7.361h-6.227c-2.206 0-4 2.243-4 5s1.794 5 4 5h26c2.206 0 4-2.243 4-5s-1.794-5-4-5zm-9.031-1.828c-.1850059-1.1620857-.8526099-2.1918231-1.838-2.835-.6-.491-.979-.817-1.093-1.309-.1074584-.4509802-.4426474-.8130904-.884-.955-.4627632-.1538349-.9720929-.0594447-1.349.25-1.5268567 1.1887878-2.522987 2.9320158-2.772 4.851-.6584635-.7693407-1.0242808-1.7463879-1.033-2.759 0-2.357 1.243-3.515 2.682-4.854 1.4159208-1.1112084 2.4783463-2.6099996 3.058-4.314 1.726 1.736 4.26 5 4.26 9.168-.0086307 1.0116711-.3736998 1.9879035-1.031 2.757zm-4.417 1.786c-.876-.151-1.552-.73-1.552-1.4.0732943-1.1927846.6007768-2.312164 1.474-3.128.374931.5647825.8468788 1.0587365 1.394 1.459.744.606 1.132.955 1.132 1.669 0 .671-.676 1.25-1.552 1.4-.15.013-.3.042-.448.042s-.3-.029-.448-.042zm-8.552-7.319c0-3.714 2.151-5.513 4.642-7.6 2.15-1.8 4.374-3.658 5.112-6.873.0188914-.0754295.0763635-.1351853.151-.157.0256944-.007145.0523569-.0101825.079-.009.0509806.0009024.0999461.0200628.138.054 2.942 2.509 7.878 7.746 7.878 14.585-.0408966 1.9422765-.9254367 3.7704965-2.423 5.008.277419-.7115533.4208313-1.4682823.423-2.232 0-5.184-3.259-9.073-5.2-10.931-.4614936-.43713-1.1234621-.5901863-1.73-.4-.5991983.1878984-1.0498686.6852425-1.178 1.3-.33 1.625-1.369 2.592-2.572 3.713-1.557 1.449-3.32 3.091-3.32 6.318.0021687.7637177.145581 1.5204467.423 2.232-1.4975633-1.2375035-2.3821034-3.0657235-2.423-5.008zm-6 12.361c0-1.626.916-3 2-3s2 1.374 2 3-.916 3-2 3-2-1.374-2-3zm28 3h-22.82c1.0928609-1.8507069 1.0928609-4.1492931 0-6h22.82c1.084 0 2 1.374 2 3s-.916 3-2 3z"/><path id="Shape" d="m42 54h-4c-.5522847 0-1 .4477153-1 1s.4477153 1 1 1h4c.5522847 0 1-.4477153 1-1s-.4477153-1-1-1z"/><path id="Shape" d="m50 54h-4c-.5522847 0-1 .4477153-1 1s.4477153 1 1 1h4c.5522847 0 1-.4477153 1-1s-.4477153-1-1-1z"/><path id="Shape" d="m.017 49.6c.31481832 5.8336814 5.14786878 10.3962746 10.99 10.375 3.0674761.0077005 5.997849-1.2702129 8.0793868-3.5233594 2.0815379-2.2531464 3.12379-5.2753738 2.8736132-8.3326406 2.1290407-.6931655 3.8690554-2.24868 4.7955331-4.287045s.954223-4.3721402.0764669-6.431955l7.449-7.449 2.4-1.139c.4296848-.2103796.7683434-.5696492.953-1.011l1.685-4.016c.3178811-.7573018.1432967-1.631807-.441-2.209l-.466-.466c-.575622-.5878896-1.4525452-.7632742-2.21-.442l-4.016 1.684c-.4448749.1884682-.8064866.5316085-1.018.966l-1.128 2.391-7.45 7.45c-2.9912286-1.2913282-6.4680477-.6196114-8.763 1.693-.8984558.8799312-1.5563893 1.9754541-1.911 3.182-3.17133198-.2668937-6.30271015.8535737-8.58481415 3.0718118-2.28210399 2.218238-3.49097923 5.3165597-3.31418585 8.4941882zm17.274-5.489c-.3722372-.5604932-.8534553-1.0403509-1.415-1.411l14.993-14.992 1.415 1.414zm-2.05.636c1.1711458 1.1714996 1.1711458 3.0705004 0 4.242-1.1870572 1.1329556-3.0549428 1.1329556-4.242 0-.7798698-.7532234-1.09263779-1.8686337-.8180915-2.917522.2745464-1.0488883 1.0936812-1.8680231 2.1425695-2.1425695 1.0488883-.2745463 2.1642986.0382217 2.917522.8180915zm17.721-20.547 4.038-1.675.479.489-1.664 4-1.909.9-1.833-1.833zm-21.216 15.826c.9135874.0737675 1.7559887-.4964223 2.027-1.372.987983-3.0303108 4.1747127-4.7574629 7.253-3.931l-7.216 7.216c-.2282141-.0379576-.4587466-.0603426-.69-.067-2.1798919-.0677837-4.16726149 1.2414904-4.96535436 3.271163-.79809288 2.0296727-.23475071 4.3419188 1.40748531 5.777044 1.64223605 1.4351251 4.00911565 1.6835554 5.91354325.6206918 1.9044276-1.0628635 2.935595-3.2077482 2.5763258-5.3588988l7.216-7.216c.8279615 3.0761723-.8966782 6.2622518-3.925 7.251-.8772493.2715428-1.4494422 1.1144685-1.378 2.03.3137901 3.7639813-1.7560022 7.3234415-5.1825172 8.9124709-3.426515 1.5890295-7.48066058.8695153-10.15110517-1.8015791s-3.38897233-6.7254149-1.79910924-10.1515432c1.5898631-3.4261283 5.14982674-5.4950545 8.91373161-5.1803486z"/><path id="Shape" d="m8.17 54.65c.39237889.3789722 1.01608478.3735524 1.40181858-.0121814.38573379-.3857338.39115363-1.0094397.01218142-1.4018186l-2.828-2.829c-.25107447-.2599566-.62287789-.3642126-.97250732-.2726972-.34962944.0915155-.6226744.3645604-.71418984.7141899-.09151544.3496294.01274058.7214328.27269716.9725073z"/><path id="Shape" d="m57.643.033-9 1.636c-.9513844.17259399-1.6430581 1.0010869-1.643 1.968v8.919c-.6053465-.3599241-1.2957468-.5518554-2-.556-2.209139 0-4 1.790861-4 4s1.790861 4 4 4 4-1.790861 4-4v-7.166l9-1.634v5.358c-.605149-.3606248-1.2955619-.55325-2-.558-2.209139 0-4 1.790861-4 4s1.790861 4 4 4 4-1.790861 4-4v-14c-.0002607-.59275579-.2634435-1.15485877-.718542-1.53465459-.4550985-.37979581-1.0552219-.53815239-1.638458-.43234541zm-12.643 17.967c-1.1045695 0-2-.8954305-2-2s.8954305-2 2-2 2 .8954305 2 2-.8954305 2-2 2zm4-11.2v-3.164l9-1.636v3.166zm7 11.2c-1.1045695 0-2-.8954305-2-2s.8954305-2 2-2 2 .8954305 2 2-.8954305 2-2 2z"/><path id="Shape" d="m19 18c-2.209139 0-4 1.790861-4 4s1.790861 4 4 4 4-1.790861 4-4v-14c-.0002607-.59275579-.2634435-1.15485877-.718542-1.53465459-.4550985-.37979581-1.0552219-.53815239-1.638458-.43234541l-9 1.636c-.9513844.17259399-1.6430581 1.0010869-1.643 1.968v8.919c-.60534654-.3599241-1.29574677-.5518554-2-.556-2.209139 0-4 1.790861-4 4s1.790861 4 4 4 4-1.790861 4-4v-7.166l9-1.634v5.358c-.605149-.3606248-1.2955619-.55325-2-.558zm0 6c-1.1045695 0-2-.8954305-2-2s.8954305-2 2-2 2 .8954305 2 2-.8954305 2-2 2zm-11 0c-1.1045695 0-2-.8954305-2-2s.8954305-2 2-2 2 .8954305 2 2-.8954305 2-2 2zm4-11.2v-3.164l9-1.636v3.166z"/></g></g></svg>